# xmcd
#
# Track frame offsets:
#	150
#	17607
#	40447
#	58005
#	77062
#	95585
#	113012
#	130235
#	149030
#	168912
#	191040
#
# Disc length: 2838 seconds
#
# Revision: 4
# Processed by: cddbd v1.5.1PL2 Copyright (c) Steve Scherf et al.
# Submitted via: dBpowerAMP V4.0
#
DISCID=980b140b
DTITLE=K.T. Oslin - Songs From An Aging Sex Bomb (Greatest Hits)
DYEAR=1993
DGENRE=Country
TTITLE0=New Way Home
TTITLE1=Hold Me
TTITLE2=Feeding A Hungry Heart
TTITLE3=80's Ladies
TTITLE4=Do Ya'
TTITLE5=Come Next Monday
TTITLE6=You Can't Do That
TTITLE7=I'll Always Come Back
TTITLE8=Hey Bobby
TTITLE9=This Woman
TTITLE10=Get Back In The Saddle
EXTD=
EXTT0=
EXTT1=
EXTT2=
EXTT3=
EXTT4=
EXTT5=
EXTT6=
EXTT7=
EXTT8=
EXTT9=
EXTT10=
PLAYORDER=
